<svg width="1280" height="520" viewBox="0 0 1280 520" fill="none" xmlns="http://www.w3.org/2000/svg" role="img" aria-label="Log Latency Profiler workflow diagram">
<rect width="1280" height="520" rx="28" fill="#07192f"/>
<text x="72" y="82" fill="#eff6ff" font-family="Inter, ui-sans-serif, system-ui" font-size="34" font-weight="800">Log Latency Profiler workflow</text>
<text x="72" y="122" fill="#bae6fd" font-family="Inter, ui-sans-serif, system-ui" font-size="20">Profile request latency from JSONL application logs</text>
<rect x="72" y="176" width="255" height="142" rx="22" fill="#38bdf8" opacity=".18" stroke="#38bdf8" stroke-width="3"/>
<circle cx="106" cy="210" r="17" fill="#facc15" opacity=".9"/>
<text x="101" y="217" fill="#07192f" font-family="Inter, ui-sans-serif, system-ui" font-size="18" font-weight="900">1</text>
<text x="136" y="220" fill="#eff6ff" font-family="Inter, ui-sans-serif, system-ui" font-size="21" font-weight="800">Example</text>
<text x="96" y="268" fill="#bae6fd" font-family="Inter, ui-sans-serif, system-ui" font-size="16">examples/sample.jsonl</text>
<path d="M336 247h20" stroke="#facc15" stroke-width="5" stroke-linecap="round"/>
<path d="M348 235l12 12-12 12" stroke="#facc15" stroke-width="5" stroke-linecap="round" stroke-linejoin="round"/>
<rect x="365" y="176" width="255" height="142" rx="22" fill="#eff6ff" opacity=".07" stroke="#facc15" stroke-width="3"/>
<circle cx="399" cy="210" r="17" fill="#facc15" opacity=".9"/>
<text x="394" y="217" fill="#07192f" font-family="Inter, ui-sans-serif, system-ui" font-size="18" font-weight="900">2</text>
<text x="429" y="220" fill="#eff6ff" font-family="Inter, ui-sans-serif, system-ui" font-size="21" font-weight="800">CLI</text>
<text x="389" y="268" fill="#bae6fd" font-family="Inter, ui-sans-serif, system-ui" font-size="16">log-latency-profiler</text>
<path d="M629 247h20" stroke="#facc15" stroke-width="5" stroke-linecap="round"/>
<path d="M641 235l12 12-12 12" stroke="#facc15" stroke-width="5" stroke-linecap="round" stroke-linejoin="round"/>
<rect x="658" y="176" width="255" height="142" rx="22" fill="#eff6ff" opacity=".07" stroke="#38bdf8" stroke-width="3"/>
<circle cx="692" cy="210" r="17" fill="#facc15" opacity=".9"/>
<text x="687" y="217" fill="#07192f" font-family="Inter, ui-sans-serif, system-ui" font-size="18" font-weight="900">3</text>
<text x="722" y="220" fill="#eff6ff" font-family="Inter, ui-sans-serif, system-ui" font-size="21" font-weight="800">Core</text>
<text x="682" y="268" fill="#bae6fd" font-family="Inter, ui-sans-serif, system-ui" font-size="16">parse + transform</text>
<path d="M922 247h20" stroke="#facc15" stroke-width="5" stroke-linecap="round"/>
<path d="M934 235l12 12-12 12" stroke="#facc15" stroke-width="5" stroke-linecap="round" stroke-linejoin="round"/>
<rect x="951" y="176" width="255" height="142" rx="22" fill="#38bdf8" opacity=".18" stroke="#facc15" stroke-width="3"/>
<circle cx="985" cy="210" r="17" fill="#facc15" opacity=".9"/>
<text x="980" y="217" fill="#07192f" font-family="Inter, ui-sans-serif, system-ui" font-size="18" font-weight="900">4</text>
<text x="1015" y="220" fill="#eff6ff" font-family="Inter, ui-sans-serif, system-ui" font-size="21" font-weight="800">Output</text>
<text x="975" y="268" fill="#bae6fd" font-family="Inter, ui-sans-serif, system-ui" font-size="16">terminal/report</text>
<path d="M72 460h1136" stroke="#38bdf8" stroke-width="8" stroke-linecap="round" opacity=".56"/>
<text x="72" y="492" fill="#bae6fd" font-family="ui-monospace, SFMono-Regular, Menlo, monospace" font-size="16">DEVELOPER TOOL</text>
</svg>